<?xml version="1.0" standalone="no"?>
<!DOCTYPE svg PUBLIC "-//W3C//DTD SVG 20010904//EN"
 "http://www.w3.org/TR/2001/REC-SVG-20010904/DTD/svg10.dtd">
<svg version="1.0" xmlns="http://www.w3.org/2000/svg"
 width="1024.000000pt" height="1024.000000pt" viewBox="0 0 1024.000000 1024.000000"
 preserveAspectRatio="xMidYMid meet">

<g transform="translate(0.000000,1024.000000) scale(0.100000,-0.100000)"
fill="#000000" stroke="none">
<path d="M4992 9175 c-118 -22 -212 -73 -301 -163 -86 -87 -124 -155 -148
-265 -34 -162 11 -334 124 -474 21 -27 31 -48 27 -55 -8 -13 -474 -700 -479
-706 -2 -2 -11 1 -22 7 -17 10 -145 63 -545 223 l-177 71 6 81 c21 315 -217
582 -537 603 -303 20 -565 -213 -587 -521 -11 -155 44 -299 157 -415 65 -66
137 -107 239 -137 l75 -21 68 -379 c37 -209 68 -381 68 -384 0 -3 -29 -11 -65
-18 -339 -64 -704 -358 -878 -707 -146 -292 -166 -630 -56 -917 l30 -78 -59
-72 c-160 -197 -277 -426 -341 -670 -45 -170 -55 -256 -55 -448 0 -204 20
-325 85 -524 284 -866 1279 -1620 2494 -1889 604 -134 1315 -144 1910 -26 382
75 680 175 1009 337 764 375 1313 905 1544 1489 148 374 161 790 36 1172 -63
193 -170 389 -293 540 -25 31 -52 64 -59 73 -11 14 -8 31 21 110 61 164 84
329 67 478 -36 303 -159 551 -389 780 -179 179 -367 290 -582 344 -87 22 -94
26 -91 48 2 12 30 181 63 373 32 193 59 355 59 361 0 6 28 16 63 22 147 27
301 141 366 270 107 212 72 453 -91 627 -227 243 -588 245 -825 6 -101 -103
-156 -250 -155 -417 l0 -91 -366 -146 c-202 -80 -372 -147 -378 -149 -9 -3
-466 670 -481 707 -2 7 11 35 30 62 144 201 154 445 28 642 -119 185 -377 289
-609 246z m206 -379 c91 -47 128 -157 83 -244 -46 -90 -143 -127 -234 -88
-133 57 -145 247 -21 322 45 28 129 32 172 10z m152 -1012 c424 -650 450 -686
500 -712 87 -45 75 -49 855 285 160 69 296 127 304 131 11 4 13 -2 7 -29 -4
-19 -38 -211 -77 -428 -38 -217 -70 -395 -72 -396 -1 -2 -38 -10 -82 -20 -280
-61 -571 -243 -725 -454 l-45 -62 -50 6 c-27 3 -126 14 -220 25 -436 51 -864
49 -1296 -6 l-204 -25 -29 38 c-59 76 -223 231 -300 283 -127 85 -270 148
-419 185 l-132 32 -32 174 c-52 284 -120 674 -118 677 1 1 229 -95 506 -214
560 -240 576 -245 659 -202 42 21 70 61 390 540 190 285 347 517 350 517 3 0
106 -155 230 -345z m-2343 310 c147 -109 79 -333 -100 -334 -194 -1 -245 265
-67 352 30 15 139 3 167 -18z m4419 7 c110 -67 124 -217 28 -300 -41 -37 -69
-45 -134 -39 -120 12 -192 141 -141 253 20 44 41 66 86 89 42 22 123 20 161
-3z m-4078 -1857 c85 -17 203 -64 289 -116 80 -47 202 -171 267 -270 111 -170
171 -198 353 -163 463 90 1099 95 1608 14 303 -49 338 -37 465 151 98 145 229
259 381 330 102 47 173 62 317 67 112 5 147 2 226 -16 263 -61 491 -246 607
-495 53 -114 71 -190 76 -336 6 -159 -13 -260 -73 -388 -68 -147 -57 -222 51
-343 280 -311 409 -683 366 -1059 -44 -380 -230 -723 -572 -1055 -539 -523
-1333 -864 -2199 -946 -150 -14 -581 -14 -740 1 -798 71 -1599 388 -2124 840
-267 230 -476 502 -589 770 -71 168 -107 348 -107 535 0 330 122 635 361 900
123 137 135 201 65 349 -69 146 -95 300 -77 454 45 379 327 699 686 777 84 19
270 18 363 -1z"/>
<path d="M3116 5828 c-91 -12 -178 -58 -252 -132 -248 -248 -156 -657 173
-776 53 -19 77 -22 165 -18 92 3 111 8 173 38 88 42 190 141 228 222 160 339
-117 718 -487 666z"/>
<path d="M6968 5829 c-121 -18 -249 -102 -318 -209 -92 -144 -95 -352 -7 -502
38 -65 128 -145 204 -181 59 -27 81 -32 168 -35 83 -3 111 0 163 17 185 63
301 206 325 401 14 112 -38 268 -121 361 -100 112 -262 170 -414 148z"/>
<path d="M4536 4565 c-121 -43 -173 -198 -103 -304 112 -169 377 -92 377 108
0 63 -13 97 -53 140 -62 65 -140 85 -221 56z"/>
<path d="M5548 4570 c-120 -36 -181 -172 -129 -285 55 -122 212 -158 316 -72
169 139 22 420 -187 357z"/>
<path d="M3010 4261 c-121 -39 -203 -162 -185 -274 17 -101 132 -275 275 -417
327 -325 912 -538 1645 -600 153 -13 603 -13 760 0 658 54 1234 257 1576 557
135 119 279 303 314 404 31 87 14 175 -48 245 -57 64 -107 88 -187 88 -115 0
-176 -49 -225 -180 -36 -95 -75 -152 -154 -226 -255 -241 -705 -393 -1329
-449 -172 -15 -693 -6 -847 15 -495 67 -858 188 -1091 364 -110 84 -172 163
-215 276 -37 98 -74 148 -131 177 -44 23 -120 32 -158 20z"/>
</g>
</svg>
